<svg xmlns="http://www.w3.org/2000/svg" viewBox="0 0 512 512"><defs><style>.cls-1{fill:#934cf5;}.cls-2{fill:#4f4f74;}.cls-3{fill:#3e436d;}.cls-4{fill:#6f6f93;}.cls-5{fill:#fff;}.cls-6{fill:#e2e2e2;}.cls-7{fill:#27273d;}.cls-8{fill:#db1b1b;}.cls-9{fill:#bf1919;}.cls-10{fill:#f6c752;}.cls-11{fill:#f7bb38;}.cls-12{fill:#e88032;}</style></defs><title>50-Computer-Hardware</title><g id="BULINE"><circle class="cls-1" cx="256" cy="256" r="256"/></g><g id="Icons"><path class="cls-2" d="M469.77,143.78v223.6a8.7,8.7,0,0,1-8.7,8.7H364.89V401a8.31,8.31,0,0,1-8.31,8.31H157.08a8.31,8.31,0,0,1-8.31-8.31v-24.9h-45v-241h357.3A8.69,8.69,0,0,1,469.77,143.78Z"/><path class="cls-3" d="M364.89,379.29V401a8.31,8.31,0,0,1-8.31,8.31H157.08a8.31,8.31,0,0,1-8.31-8.31V379.29Z"/><rect class="cls-3" x="103.77" y="135.08" width="24.07" height="241"/><rect class="cls-4" x="103.77" y="241.43" width="366" height="28.29"/><path class="cls-5" d="M78.71,87.16H44.26a5.47,5.47,0,0,0-5.47,5.47v14.12a5.47,5.47,0,0,0,5.47,5.47H78.71v46.33H54.18A3.41,3.41,0,0,0,50.77,162v70.5a3.41,3.41,0,0,0,3.41,3.41H78.71v70.38H54.18a3.41,3.41,0,0,0-3.41,3.42v44.45a3.41,3.41,0,0,0,3.41,3.42H78.71v61A5.47,5.47,0,0,0,84.18,424H98.29a5.47,5.47,0,0,0,5.48-5.47V90.6a3.45,3.45,0,0,0-3.45-3.44Z"/><rect class="cls-6" x="66.77" y="158.55" width="11.94" height="77.33"/><rect class="cls-6" x="66.77" y="306.26" width="11.94" height="51.29"/><path class="cls-7" d="M68.72,288.86h10a0,0,0,0,1,0,0V300a0,0,0,0,1,0,0h-10a2,2,0,0,1-2-2v-7.19A2,2,0,0,1,68.72,288.86Z"/><path class="cls-7" d="M68.72,363.61h10a0,0,0,0,1,0,0v11.1a0,0,0,0,1,0,0h-10a2,2,0,0,1-2-2v-7.19A2,2,0,0,1,68.72,363.61Z"/><circle class="cls-7" cx="199.23" cy="255.58" r="79.53"/><path class="cls-8" d="M208.87,242l-15.93,15.94c-11.09-16.94-32.39-25.19-54.69-34a3.51,3.51,0,0,1-1.2-5.74l20.24-20.24a8.35,8.35,0,0,1,10.79-.85C184.66,209.06,197.73,224.54,208.87,242Z"/><path class="cls-8" d="M196.42,239.13v22.53c-19.82-4.13-40.72,5.09-62.7,14.65a3.51,3.51,0,0,1-4.9-3.21V244.47a8.34,8.34,0,0,1,7-8.23C156,233,176.23,234.69,196.42,239.13Z"/><path class="cls-8" d="M185.61,245.94l15.93,15.93c-16.93,11.09-25.19,32.39-34,54.69a3.51,3.51,0,0,1-5.74,1.2l-20.24-20.24a8.34,8.34,0,0,1-.85-10.79C152.72,270.15,168.2,257.08,185.61,245.94Z"/><path class="cls-8" d="M182.78,258.39h22.54c-4.14,19.82,5.09,40.72,14.65,62.7a3.51,3.51,0,0,1-3.22,4.9H188.13a8.34,8.34,0,0,1-8.23-7C176.64,298.77,178.35,278.58,182.78,258.39Z"/><path class="cls-8" d="M189.59,269.2l15.94-15.93c11.09,16.93,32.39,25.19,54.69,34a3.5,3.5,0,0,1,1.19,5.74l-20.24,20.24a8.34,8.34,0,0,1-10.79.85C213.81,302.09,200.73,286.61,189.59,269.2Z"/><path class="cls-8" d="M202.05,272V249.49c19.81,4.13,40.71-5.09,62.7-14.65a3.51,3.51,0,0,1,4.9,3.22v28.62a8.34,8.34,0,0,1-7,8.23C242.43,278.17,222.24,276.46,202.05,272Z"/><path class="cls-8" d="M212.86,265.22l-15.94-15.94c16.94-11.09,25.19-32.39,34-54.69a3.5,3.5,0,0,1,5.74-1.19l20.24,20.24a8.35,8.35,0,0,1,.85,10.79C245.75,241,230.27,254.08,212.86,265.22Z"/><path class="cls-8" d="M215.68,252.76H193.15c4.13-19.82-5.09-40.71-14.65-62.7a3.51,3.51,0,0,1,3.21-4.9h28.63a8.34,8.34,0,0,1,8.23,7C221.82,212.38,220.12,232.57,215.68,252.76Z"/><path class="cls-9" d="M203.33,252.76H193.15c4.13-19.81-5.09-40.71-14.65-62.7a3.5,3.5,0,0,1,3.21-4.9h10.18a3.51,3.51,0,0,0-3.22,4.9C198.24,212.05,207.46,233,203.33,252.76Z"/><path class="cls-9" d="M200.14,250.69l-7.2,7.2c-11.09-16.94-32.39-25.19-54.69-34a3.51,3.51,0,0,1-1.2-5.74l7.2-7.19a3.5,3.5,0,0,0,1.19,5.74C167.75,225.5,189.05,233.76,200.14,250.69Z"/><path class="cls-9" d="M196.42,251.48v10.18c-19.82-4.13-40.72,5.09-62.7,14.65a3.5,3.5,0,0,1-4.9-3.21V262.92a3.51,3.51,0,0,0,4.9,3.22C155.7,256.57,176.6,247.35,196.42,251.48Z"/><path class="cls-9" d="M194.35,254.67l7.19,7.2c-16.93,11.09-25.18,32.39-34,54.69a3.51,3.51,0,0,1-5.74,1.2l-7.19-7.2a3.5,3.5,0,0,0,5.74-1.19C169.16,287.06,177.42,265.76,194.35,254.67Z"/><path class="cls-9" d="M195.14,258.39h10.18c-4.13,19.82,5.09,40.72,14.64,62.7a3.5,3.5,0,0,1-3.21,4.9H206.58a3.5,3.5,0,0,0,3.21-4.9C200.23,299.11,191,278.21,195.14,258.39Z"/><path class="cls-9" d="M198.33,260.46l7.2-7.19c11.09,16.93,32.39,25.18,54.69,34a3.5,3.5,0,0,1,1.19,5.74l-7.19,7.19a3.51,3.51,0,0,0-1.19-5.74C230.72,285.65,209.42,277.39,198.33,260.46Z"/><path class="cls-9" d="M202.05,259.67V249.49c19.81,4.13,40.71-5.09,62.7-14.64a3.5,3.5,0,0,1,4.9,3.21v10.17a3.5,3.5,0,0,0-4.9-3.21C242.76,254.58,221.86,263.8,202.05,259.67Z"/><path class="cls-9" d="M204.12,256.48l-7.2-7.2c16.94-11.09,25.19-32.39,34-54.69a3.5,3.5,0,0,1,5.74-1.19l7.19,7.19a3.51,3.51,0,0,0-5.74,1.19C229.31,224.09,221.05,245.39,204.12,256.48Z"/><circle class="cls-10" cx="199.23" cy="255.58" r="25.09"/><path class="cls-11" d="M205.09,280a25.1,25.1,0,1,1,0-48.79,25.09,25.09,0,0,0,0,48.79Z"/><circle class="cls-7" cx="374.53" cy="255.58" r="79.53"/><path class="cls-8" d="M384.17,242l-15.93,15.94c-11.09-16.94-32.39-25.19-54.7-34a3.51,3.51,0,0,1-1.19-5.74l20.24-20.24a8.35,8.35,0,0,1,10.79-.85C360,209.06,373,224.54,384.17,242Z"/><path class="cls-8" d="M371.71,239.13v22.53c-19.81-4.13-40.71,5.09-62.7,14.65a3.51,3.51,0,0,1-4.9-3.21V244.47a8.35,8.35,0,0,1,7-8.23C331.33,233,351.52,234.69,371.71,239.13Z"/><path class="cls-8" d="M360.91,245.94l15.93,15.93c-16.93,11.09-25.19,32.39-34,54.69a3.5,3.5,0,0,1-5.73,1.2l-20.24-20.24a8.35,8.35,0,0,1-.86-10.79C328,270.15,343.49,257.08,360.91,245.94Z"/><path class="cls-8" d="M358.08,258.39h22.53c-4.13,19.82,5.09,40.72,14.65,62.7a3.5,3.5,0,0,1-3.21,4.9H363.42a8.35,8.35,0,0,1-8.23-7C351.94,298.77,353.64,278.58,358.08,258.39Z"/><path class="cls-8" d="M364.89,269.2l15.93-15.93c11.09,16.93,32.39,25.19,54.7,34a3.51,3.51,0,0,1,1.19,5.74l-20.24,20.24a8.34,8.34,0,0,1-10.79.85C389.1,302.09,376,286.61,364.89,269.2Z"/><path class="cls-8" d="M377.35,272V249.49c19.81,4.13,40.71-5.09,62.69-14.65a3.5,3.5,0,0,1,4.9,3.22v28.62a8.34,8.34,0,0,1-7,8.23C417.73,278.17,397.54,276.46,377.35,272Z"/><path class="cls-8" d="M388.15,265.22l-15.93-15.94c16.93-11.09,25.19-32.39,34-54.69a3.49,3.49,0,0,1,5.73-1.19l20.24,20.24a8.34,8.34,0,0,1,.85,10.79C421.05,241,405.57,254.08,388.15,265.22Z"/><path class="cls-8" d="M391,252.76H368.45c4.13-19.82-5.1-40.71-14.65-62.7a3.5,3.5,0,0,1,3.21-4.9h28.62a8.34,8.34,0,0,1,8.23,7C397.12,212.38,395.41,232.57,391,252.76Z"/><path class="cls-9" d="M378.62,252.76H368.44c4.14-19.81-5.09-40.71-14.64-62.7a3.5,3.5,0,0,1,3.21-4.9h10.17a3.5,3.5,0,0,0-3.21,4.9C373.53,212.05,382.75,233,378.62,252.76Z"/><path class="cls-9" d="M375.43,250.69l-7.2,7.2c-11.08-16.94-32.38-25.19-54.69-34a3.5,3.5,0,0,1-1.19-5.74l7.19-7.19a3.51,3.51,0,0,0,1.2,5.74C343,225.5,364.34,233.76,375.43,250.69Z"/><path class="cls-9" d="M371.71,251.48v10.18c-19.81-4.13-40.71,5.09-62.7,14.65a3.5,3.5,0,0,1-4.9-3.21V262.92a3.51,3.51,0,0,0,4.9,3.22C331,256.57,351.9,247.35,371.71,251.48Z"/><path class="cls-9" d="M369.64,254.67l7.2,7.2c-16.93,11.09-25.19,32.39-34,54.69a3.5,3.5,0,0,1-5.73,1.2l-7.2-7.2a3.5,3.5,0,0,0,5.74-1.19C344.46,287.06,352.71,265.76,369.64,254.67Z"/><path class="cls-9" d="M370.44,258.39h10.17c-4.13,19.82,5.09,40.72,14.65,62.7a3.5,3.5,0,0,1-3.21,4.9H381.87a3.51,3.51,0,0,0,3.22-4.9C375.53,299.11,366.3,278.21,370.44,258.39Z"/><path class="cls-9" d="M373.63,260.46l7.19-7.19c11.09,16.93,32.39,25.18,54.69,34a3.51,3.51,0,0,1,1.2,5.74l-7.2,7.19a3.5,3.5,0,0,0-1.19-5.74C406,285.65,384.72,277.39,373.63,260.46Z"/><path class="cls-9" d="M377.35,259.67V249.49c19.81,4.13,40.71-5.09,62.69-14.64a3.5,3.5,0,0,1,4.9,3.21v10.17A3.5,3.5,0,0,0,440,245C418.06,254.58,397.16,263.8,377.35,259.67Z"/><path class="cls-9" d="M379.41,256.48l-7.19-7.2c16.93-11.09,25.19-32.39,34-54.69a3.49,3.49,0,0,1,5.73-1.19l7.2,7.19a3.51,3.51,0,0,0-5.74,1.19C404.6,224.09,396.35,245.39,379.41,256.48Z"/><circle class="cls-10" cx="374.53" cy="255.58" r="25.09"/><path class="cls-11" d="M380.38,280a25.1,25.1,0,1,1,0-48.79,25.1,25.1,0,0,0,0,48.79Z"/><path class="cls-12" d="M163.62,381.79h9.15a4.5,4.5,0,0,1,4.5,4.5v23a0,0,0,0,1,0,0H159.12a0,0,0,0,1,0,0v-23A4.5,4.5,0,0,1,163.62,381.79Z"/><path class="cls-12" d="M193.47,381.79h9.15a4.5,4.5,0,0,1,4.5,4.5v23a0,0,0,0,1,0,0H189a0,0,0,0,1,0,0v-23A4.5,4.5,0,0,1,193.47,381.79Z"/><path class="cls-12" d="M223.32,381.79h9.15a4.5,4.5,0,0,1,4.5,4.5v23a0,0,0,0,1,0,0H218.82a0,0,0,0,1,0,0v-23A4.5,4.5,0,0,1,223.32,381.79Z"/><path class="cls-12" d="M253.17,381.79h9.15a4.5,4.5,0,0,1,4.5,4.5v23a0,0,0,0,1,0,0H248.67a0,0,0,0,1,0,0v-23A4.5,4.5,0,0,1,253.17,381.79Z"/><path class="cls-12" d="M283,381.79h9.15a4.5,4.5,0,0,1,4.5,4.5v23a0,0,0,0,1,0,0H278.53a0,0,0,0,1,0,0v-23A4.5,4.5,0,0,1,283,381.79Z"/><path class="cls-12" d="M312.88,381.79H322a4.5,4.5,0,0,1,4.5,4.5v23a0,0,0,0,1,0,0H308.38a0,0,0,0,1,0,0v-23A4.5,4.5,0,0,1,312.88,381.79Z"/><path class="cls-12" d="M342.73,381.79h9.15a4.5,4.5,0,0,1,4.5,4.5v23a0,0,0,0,1,0,0H338.23a0,0,0,0,1,0,0v-23A4.5,4.5,0,0,1,342.73,381.79Z"/><circle class="cls-4" cx="432.74" cy="158.55" r="17.4"/><circle class="cls-4" cx="396.49" cy="158.55" r="12.32"/></g></svg>